<svg id="visual" viewBox="0 0 900 600" width="900" height="600" xmlns="http://www.w3.org/2000/svg" xmlns:xlink="http://www.w3.org/1999/xlink" version="1.1"><rect x="0" y="0" width="900" height="600" fill="#87b4f7"></rect><defs><linearGradient id="grad1_0" x1="33.3%" y1="0%" x2="100%" y2="100%"><stop offset="20%" stop-color="#87b4f7" stop-opacity="1"></stop><stop offset="80%" stop-color="#87b4f7" stop-opacity="1"></stop></linearGradient></defs><defs><linearGradient id="grad2_0" x1="0%" y1="0%" x2="66.7%" y2="100%"><stop offset="20%" stop-color="#87b4f7" stop-opacity="1"></stop><stop offset="80%" stop-color="#87b4f7" stop-opacity="1"></stop></linearGradient></defs><g transform="translate(900, 0)"><path d="M0 432.7C-35.8 396.8 -71.6 361 -113.7 350C-155.9 339 -204.3 352.9 -248.6 342.2C-292.9 331.5 -333 296.2 -350 254.3C-367 212.4 -361 164 -370.9 120.5C-380.8 77 -406.8 38.5 -432.7 0L0 0Z" fill="#96BDF8"></path></g><g transform="translate(0, 600)"><path d="M0 -432.7C47.3 -431.8 94.6 -431 133.7 -411.5C172.8 -392 203.7 -353.9 231.6 -318.8C259.4 -283.7 284.2 -251.6 299.3 -217.5C314.4 -183.4 319.9 -147.2 340.5 -110.6C361.1 -74 396.9 -37 432.7 0L0 0Z" fill="#96BDF8"></path></g></svg>