<svg id="visual" viewBox="0 0 900 600" width="900" height="600" xmlns="http://www.w3.org/2000/svg" xmlns:xlink="http://www.w3.org/1999/xlink" version="1.1"><rect x="0" y="0" width="900" height="600" fill="#000100"></rect><path d="M0 296L129 364L257 309L386 340L514 302L643 326L771 398L900 325L900 601L771 601L643 601L514 601L386 601L257 601L129 601L0 601Z" fill="#94c5cc"></path><path d="M0 386L129 351L257 395L386 342L514 361L643 378L771 406L900 399L900 601L771 601L643 601L514 601L386 601L257 601L129 601L0 601Z" fill="#b2d5da"></path><path d="M0 357L129 377L257 408L386 410L514 383L643 379L771 392L900 414L900 601L771 601L643 601L514 601L386 601L257 601L129 601L0 601Z" fill="#d0e5e8"></path><path d="M0 382L129 453L257 444L386 419L514 420L643 454L771 444L900 399L900 601L771 601L643 601L514 601L386 601L257 601L129 601L0 601Z" fill="#edf5f6"></path><path d="M0 448L129 444L257 439L386 428L514 429L643 452L771 456L900 421L900 601L771 601L643 601L514 601L386 601L257 601L129 601L0 601Z" fill="#ffffff"></path><path d="M0 446L129 450L257 481L386 440L514 461L643 467L771 435L900 449L900 601L771 601L643 601L514 601L386 601L257 601L129 601L0 601Z" fill="#ffffff"></path><path d="M0 498L129 482L257 502L386 485L514 494L643 505L771 516L900 487L900 601L771 601L643 601L514 601L386 601L257 601L129 601L0 601Z" fill="#edf5f6"></path><path d="M0 501L129 501L257 499L386 500L514 527L643 524L771 539L900 515L900 601L771 601L643 601L514 601L386 601L257 601L129 601L0 601Z" fill="#d0e5e8"></path><path d="M0 551L129 559L257 527L386 536L514 539L643 543L771 543L900 538L900 601L771 601L643 601L514 601L386 601L257 601L129 601L0 601Z" fill="#b2d5da"></path><path d="M0 569L129 560L257 571L386 555L514 556L643 564L771 557L900 556L900 601L771 601L643 601L514 601L386 601L257 601L129 601L0 601Z" fill="#94c5cc"></path></svg>