<svg id="visual" viewBox="0 0 900 600" width="900" height="600" xmlns="http://www.w3.org/2000/svg" xmlns:xlink="http://www.w3.org/1999/xlink" version="1.1"><rect x="0" y="0" width="900" height="600" fill="#002233"></rect><path d="M0 412L21.5 418C43 424 86 436 128.8 435.7C171.7 435.3 214.3 422.7 257.2 419C300 415.3 343 420.7 385.8 434.3C428.7 448 471.3 470 514.2 473.5C557 477 600 462 642.8 461.3C685.7 460.7 728.3 474.3 771.2 468.2C814 462 857 436 878.5 423L900 410L900 601L878.5 601C857 601 814 601 771.2 601C728.3 601 685.7 601 642.8 601C600 601 557 601 514.2 601C471.3 601 428.7 601 385.8 601C343 601 300 601 257.2 601C214.3 601 171.7 601 128.8 601C86 601 43 601 21.5 601L0 601Z" fill="#0066FF" stroke-linecap="round" stroke-linejoin="miter"></path></svg>